<svg height="104" viewBox="0 0 242 104" width="242" xmlns="http://www.w3.org/2000/svg"><g fill="#d930ba" fill-rule="evenodd"><path d="m18 32.9863388h7.4512987l1.6558442-9.2704918 7.7824675-1.6639344v10.9344262h10.1834415l-1.1590909 6.4180328h-9.0243506v23.4535519c0 1.3734131.3863598 2.2581947 1.1590909 2.6543716.7727311.3961768 1.6282421.5942623 2.5665584.5942623.7727312 0 1.5454507-.0528228 2.3181819-.15847.7727311-.1056471 1.4626593-.2377041 2.0698052-.3961748.717536-.1584708 1.4074642-.3433505 2.0698051-.5546448l1.573052 5.9426229-.7451299.2377049c-.4967557.2112943-1.2280796.4357912-2.1939935.6734973s-2.0973961.4489973-3.3944805.6338798-2.7183364.2773224-4.2637987.2773224-2.9667143-.1584684-4.2637987-.4754099c-1.2970844-.3169414-2.414768-.8319636-3.3530844-1.5450819s-1.6696403-1.6243114-2.1939935-2.7336066c-.5243533-1.1092951-.786526-2.4826876-.786526-4.1202186v-24.4836065h-7.4512987zm88.339286 0 .165584.6338798c.055195.4754122.137987 1.0828742.248377 1.8224044.11039.7395301.20698 1.611106.289772 2.614754.082793 1.0036481.124189 2.007281.124189 3.010929 0 5.8634173-.344964 10.8287593-1.034903 14.8961749-.689938 4.0674156-1.821421 7.3556341-3.39448 9.8647541-1.57306 2.50912-3.6566432 4.3315061-6.250812 5.4672131-2.5941688 1.1357069-5.7954355 1.7035519-9.6038961 1.7035519-5.3539229 0-9.0243407-2.1129115-11.0113637-6.3387978-.9935114 2.1657667-2.3595692 3.763656-4.0982142 4.7937158-1.7386451 1.0300598-4.2913793 1.545082-7.6582793 1.545082-4.3052163 0-7.3960945-1.1885127-9.2727272-3.5655738-1.8766328-2.377061-2.8149351-5.6784852-2.8149351-9.9043716v-26.5437158h9.4383117v25.8306011c0 2.2185903.4139569 4.0541822 1.2418831 5.5068306s2.2353797 2.1789617 4.2224026 2.1789617c2.5389737 0 4.4983697-1.1885127 5.8782468-3.5655737 1.379877-2.3770611 2.0698052-6.3123587 2.0698052-11.806011v-18.1448087h9.3555194c-.055195 3.9617684-.0827922 7.6329521-.0827922 11.0136612 0 1.4790602-.0137985 2.9580983-.0413961 4.4371585-.0275975 1.4790602-.0413961 2.878864-.0413961 4.1994535v6.1803279c0 2.2185903.441554 4.0541822 1.3246753 5.5068306s2.3181719 2.1789617 4.3051948 2.1789617c1.9318279 0 3.4358713-.7131076 4.5121754-2.1393442 1.0763041-1.4262367 1.8628222-3.2882399 2.3595779-5.5860656s.8003241-4.9125536.9107143-7.8442623c.1103901-2.9317086.1655844-5.9029904.1655844-8.9139344 0-1.2149423-.0413957-2.363838-.1241883-3.4467213-.0827926-1.0828834-.1931811-2.0468993-.3311688-2.8920765-.1379877-.8451773-.2345777-1.5054621-.2897728-1.9808743l-.1655844-.7131148zm7.451298 20.6803279c0-3.5391798.510547-6.6557243 1.531656-9.3497268 1.021109-2.6940026 2.428563-4.9521767 4.222403-6.7745902s3.90502-3.1958059 6.333604-4.1202186c2.428583-.9244126 5.05031-1.386612 7.865259-1.386612 2.483779 0 4.594959.2905254 6.333604.8715847 1.738645.5810594 3.159897 1.3734012 4.263799 2.3770492s1.918017 2.1921607 2.44237 3.5655738c.524353 1.373413.786526 2.8524511.786526 4.4371584 0 1.9016489-.551942 3.7108293-1.655844 5.4275957-1.103902 1.7167663-2.690736 3.2222157-4.760552 4.5163934-2.069815 1.2941777-4.567355 2.3242221-7.492695 3.090164-2.925339.7659419-6.209397 1.1753184-9.852272 1.228142.165585 1.2149424.427758 2.363838.786526 3.4467213.358768 1.0828834.883113 2.0336936 1.573051 2.8524591.689939.8187654 1.586846 1.4658446 2.690747 1.9412568 1.103902.4754122 2.483758.7131147 4.139611.7131147 1.214291 0 2.511356-.1320569 3.891233-.3961748s2.649345-.5810546 3.808442-.9508197c1.379877-.4225886 2.732136-.8979937 4.056818-1.4262295l2.483766 5.6256831c-1.435072.6867065-2.980511 1.2941685-4.636363 1.8224043-1.435072.4754122-3.0909.8979945-4.967533 1.2677596-1.876632.369765-3.863626.5546448-5.961039.5546448-3.201314 0-5.93343-.4621994-8.196428-1.386612-2.262999-.9244127-4.112006-2.2317766-5.547078-3.9221312-1.435072-1.6903545-2.483763-3.7240318-3.146104-6.1010929-.662341-2.377061-.993507-5.0182004-.993507-7.9234972zm19.207793-15.4508197c-1.821438 0-3.325481.4093766-4.512176 1.2281421-1.186694.8187654-2.138795 1.8752212-2.856331 3.1693989s-1.228083 2.7468043-1.531656 4.3579235c-.303573 1.6111191-.482954 3.2354198-.538149 4.8729508 2.649364-.1056472 4.89853-.4357896 6.747565-.9904372 1.849035-.5546475 3.353078-1.2413438 4.512175-2.0601093 1.159097-.8187654 2.000809-1.7035471 2.525163-2.6543715.524353-.9508245.786526-1.9016346.786526-2.8524591 0-1.5318838-.469152-2.7600135-1.407468-3.6844262-.938316-.9244126-2.180187-1.386612-3.725649-1.386612zm44.958476 3.8748536-.002308.0076601c.007318 0 .008087-.0025533.002308-.0076599zm0 .0000002c-.037813-.0334109-.35595-.1761208-.954418-.4281325-.689938-.2905297-1.724831-.4357923-3.104708-.4357923-.993511 0-1.987008.2377025-2.980519.7131147-.993512.4754122-1.87662 1.1224914-2.649351 1.9412568-.772731.8187655-1.407465 1.8091928-1.904221 2.9713115-.496755 1.1621188-.74513 2.456277-.74513 3.8825137v21.7103825h-9.438311v-19.9672131c0-3.1694148-.220777-5.8237598-.662338-7.9631148-.441561-2.1393549-.910712-3.8693012-1.407467-5.1898907-.607146-1.5318838-1.269477-2.7732193-1.987013-3.7240437l7.451298-2.852459c.496756.5810594 1.021101 1.294167 1.573052 2.1393442.441561.7395302.883115 1.6111061 1.324676 2.6147541.44156 1.003648.800323 2.1921608 1.076298 3.5655738 1.103902-3.0637676 2.704535-5.2691189 4.801948-6.6161202s4.470766-2.0204918 7.12013-2.0204918c1.269487 0 2.456164.1452627 3.560065.4357923 1.103902.2905297 1.628247.4357924 1.573052.4357924l-2.647043 8.7874219zm17.466848-27.0907008v22.5819672c.441561-.5282358 1.007302-1.0960807 1.697241-1.7035519.689938-.6074712 1.559248-1.1753161 2.607954-1.7035519 1.048707-.5282358 2.26298-.9772295 3.642857-1.3469945 1.379877-.3697651 2.980511-.5546449 4.801948-.5546449 1.711048 0 3.311681.2377026 4.801948.7131148 1.490268.4754122 2.773534 1.1621084 3.849838 2.0601093 1.076304.8980008 1.931815 1.9940737 2.566558 3.2882514.634744 1.2941776.952111 2.76001.952111 4.3975409 0 2.3770611-.510547 4.3315042-1.531656 5.863388s-2.16639 2.7468079-3.435877 3.6448088c-1.435072 1.0564715-3.090899 1.9016361-4.967532 2.5355191l11.590909 17.6693989h-10.680195l-11.922078-19.7295082-.082792-.7923497c.441561-.1056472 1.283273-.3433497 2.525162-.7131148 1.24189-.369765 2.525156-.8979929 3.849838-1.5846994 1.324682-.6867066 2.49756-1.5450769 3.518669-2.5751367 1.021109-1.0300597 1.531656-2.2581895 1.531656-3.6844262 0-1.5318838-.469151-2.6939851-1.407468-3.4863388-.938316-.7923537-2.180187-1.1885246-3.725649-1.1885246-2.097413 0-3.808435.3961709-5.133117 1.1885246s-2.359574 1.6903411-3.104708 2.6939891c-.745133 1.003648-1.25568 1.9544582-1.531656 2.852459-.275975.8980009-.413961 1.4262287-.413961 1.5846995v25.4344262h-9.438311v-55.8606557z"/><g fill-rule="nonzero"><path d="m50 78.0902345 2.7299436-2.0902345c3.5351358 4.7988275 13.9886485 5.8849809 19.6144195 2.7046621l1.6556369 3.0440157c-6.9984755 3.9563258-19.3346932 2.6745533-24-3.6584433z"/><path d="m81 80.9405478 1.9522931-2.7669376c4.5162384 3.9156642 14.3998037 2.4022656 18.7215889-2.1736102l2.326118 2.6296683c-5.3763139 5.6924028-17.0399352 7.4783685-23 2.3108795z"/><path d="m47 85.0902345 2.7299436-2.0902345c3.5351358 4.7988275 13.9886485 5.8849809 19.6144195 2.7046621l1.6556369 3.0440157c-6.9984755 3.9563258-19.3346932 2.6745533-24-3.6584433z"/><path d="m81 87.9405478 1.9522931-2.7669376c4.5162384 3.9156642 14.3998037 2.4022656 18.7215889-2.1736102l2.326118 2.6296683c-5.3763139 5.6924028-17.0399352 7.4783685-23 2.3108795z"/></g></g></svg>